<svg width="149" height="130" viewBox="0 0 149 130" fill="none" xmlns="http://www.w3.org/2000/svg">
<path d="M74.3878 129.809C115.471 129.809 148.776 100.752 148.776 64.9072C148.776 29.0627 115.471 0.00506592 74.3878 0.00506592C33.3045 0.00506592 0 29.0627 0 64.9072C0 100.752 33.3045 129.809 74.3878 129.809Z" fill="#FFB300"/>
<path d="M127.211 19.1948C156.262 44.5419 156.264 85.6364 127.211 110.985C98.1606 136.331 51.0553 136.333 22.004 110.985L127.211 19.1948Z" fill="#3E7EF0"/>
<path d="M146.152 82.0145L92.7845 35.4546L81.9124 44.9415L52.0749 41.2829L58.2252 65.607L36.7828 84.3151L44.3203 90.8914L42.4609 92.5137L84.5037 129.196C114.256 125.667 138.404 106.799 146.152 82.0145Z" fill="#3E7EF0"/>
<path d="M89.8177 99.2724C103.744 99.2724 115.057 89.3747 115.135 77.2908L115.292 59.4988L115.058 58.5304L114.389 57.3129L113.257 56.5485C111.788 55.5442 104.341 56.6162 102.336 55.0287C100.914 53.8954 100.692 51.8467 100.26 49.0714C99.4603 43.6953 98.9574 43.4143 97.9908 41.5932C94.4847 35.1205 84.9715 30.2565 78.4361 29.5852H60.7324C46.804 29.5852 35.4173 39.4983 35.4173 51.6046V77.2908C35.4173 89.3744 46.8027 99.2724 60.7324 99.2724H89.8177ZM61.0548 47.573H75.0891C77.7696 47.573 79.9403 49.471 79.9403 51.778C79.9403 54.0756 77.7696 55.9901 75.0891 55.9901H61.0548C58.3755 55.9901 56.2083 54.0756 56.2083 51.778C56.2086 49.471 58.3755 47.573 61.0548 47.573ZM56.2086 76.964C56.2086 74.6582 58.3759 72.7755 61.0551 72.7755H89.5735C92.2364 72.7755 94.3977 74.6582 94.3977 76.964C94.3977 79.2411 92.2352 81.1534 89.5735 81.1534H61.0551C58.3755 81.1534 56.2086 79.2411 56.2086 76.964Z" fill="white"/>
</svg>
