<svg width="21" height="22" viewBox="0 0 21 22" fill="none" xmlns="http://www.w3.org/2000/svg">
<path d="M10.069 0C4.55497 0 0.0689697 4.9346 0.0689697 11C0.0689697 17.0654 4.55497 22 10.069 22C15.583 22 20.069 17.0654 20.069 11C20.069 4.9346 15.583 0 10.069 0ZM10.069 19C6.05879 19 2.79624 15.4112 2.79624 11C2.79624 6.5888 6.05879 3 10.069 3C14.0792 3 17.3417 6.5888 17.3417 11C17.3417 15.4112 14.0792 19 10.069 19ZM12.7706 12.8264L14.245 14.3329L13.5021 15.0481C12.5715 15.9437 11.3828 16.4371 10.1551 16.4371C7.39652 16.4371 5.15224 14.0193 5.15224 11.0476C5.15224 8.0827 7.39652 5.6705 10.1551 5.6705C11.3838 5.6705 12.5685 6.1593 13.4907 7.0469L14.2064 7.7359L12.7935 9.291L12.1662 8.6813C11.6264 8.157 10.9123 7.8682 10.1551 7.8682C8.49815 7.8682 7.15015 9.2945 7.15015 11.0475C7.15015 12.8075 8.49815 14.2393 10.1551 14.2393C10.904 14.2393 11.6182 13.946 12.1662 13.4135L12.7706 12.8264Z" fill="white"/>
</svg>
