<svg width="16" height="20" viewBox="0 0 16 20" fill="none" xmlns="http://www.w3.org/2000/svg">
<path d="M0.975692 10.652H4.26418V19.6774C4.26418 19.8556 4.48076 20 4.74805 20H10.3238C10.5911 20 10.8077 19.8556 10.8077 19.6774V10.6945H14.588C14.8339 10.6945 15.0407 10.5715 15.0687 10.4088L15.6429 7.08606C15.6587 6.99465 15.6152 6.9031 15.5235 6.83452C15.4316 6.76587 15.3002 6.72658 15.1623 6.72658H10.8079V4.64374C10.8079 4.01587 11.3149 3.69748 12.3152 3.69748C12.4578 3.69748 15.1623 3.69748 15.1623 3.69748C15.4296 3.69748 15.6462 3.55303 15.6462 3.3749V0.324968C15.6462 0.146774 15.4296 0.0023871 15.1623 0.0023871H11.2386C11.2109 0.00148387 11.1495 0 11.0589 0C10.3781 0 8.01166 0.0890967 6.14237 1.23555C4.07121 2.506 4.35911 4.02716 4.42792 4.2909V6.72652H0.975692C0.708402 6.72652 0.491821 6.8709 0.491821 7.0491V10.3294C0.491821 10.5075 0.708402 10.652 0.975692 10.652Z" fill="white" fill-opacity="0.5"/>
</svg>
