<svg width="148" height="118" viewBox="0 0 148 118" fill="none" xmlns="http://www.w3.org/2000/svg">
<path d="M147.775 111.536L145.413 102.066C144.475 98.3145 140.793 95.3838 136.088 94.6412L132.888 94.1369C131.05 93.8475 129.607 92.7079 129.222 91.2425L128.616 88.8987C128.418 88.1486 128.76 87.3714 129.501 86.8827C132.388 84.9762 135.03 82.1678 136.569 78.8536C138.691 78.5483 140.63 76.92 141.255 74.6777C142.025 71.9002 140.49 69.265 137.83 68.7929C137.796 68.7893 137.762 68.791 137.733 68.7893C136.93 61.575 133.446 56.2332 121.856 56.2332C110.462 56.2332 106.844 61.5731 105.992 68.7851C105.958 68.7907 105.92 68.7893 105.881 68.7927C103.216 69.265 101.686 71.9 102.456 74.6775C103.081 76.9197 105.015 78.5481 107.142 78.8533C108.682 82.1695 111.328 84.9759 114.21 86.8844C114.951 87.3714 115.293 88.1486 115.1 88.8965L114.489 91.2405C114.109 92.7059 112.666 93.8473 110.823 94.1386L107.623 94.6412C102.917 95.3838 99.2369 98.3145 98.2983 102.066L95.9357 111.536C95.5415 113.124 96.0567 114.772 97.3458 116.023C98.6353 117.275 100.56 118 102.59 118H141.121C143.152 118 145.076 117.275 146.366 116.023C147.655 114.772 148.17 113.124 147.775 111.536Z" fill="#3E7EF0"/>
<path d="M49.702 102.066C48.7637 98.3145 45.0833 95.3838 40.3771 94.6412L37.1774 94.1369C35.3391 93.8475 33.8963 92.7079 33.511 91.2425L32.9048 88.8987C32.7074 88.1486 33.0493 87.3714 33.7903 86.8827C36.6769 84.9762 39.3184 82.1678 40.8581 78.8536C42.9801 78.5483 44.9195 76.92 45.5447 74.6777C46.3147 71.9002 44.7795 69.265 42.1188 68.7929C42.0855 68.7893 42.0513 68.791 42.0228 68.7893C41.2192 61.575 37.7353 56.2332 26.1444 56.2332C14.7509 56.2332 11.1325 61.5731 10.2813 68.7851C10.2474 68.7907 10.2089 68.7893 10.1704 68.7927C7.5047 69.265 5.9748 71.9 6.74449 74.6775C7.37026 76.9197 9.30411 78.5481 11.4314 78.8533C12.9708 82.1695 15.6172 84.9759 18.4998 86.8844C19.2401 87.3714 19.582 88.1486 19.3892 88.8965L18.7784 91.2405C18.398 92.7059 16.9549 93.8473 15.1121 94.1386L11.912 94.6412C7.20679 95.3838 3.52578 98.3145 2.58773 102.066L0.224879 111.536C-0.169897 113.124 0.345267 114.772 1.6344 116.023C2.92384 117.275 4.84852 118 6.87924 118H45.4099C47.4406 118 49.3647 117.275 50.6541 116.023C51.9436 114.772 52.4584 113.124 52.0643 111.536L49.702 102.066Z" fill="#3E7EF0"/>
<path d="M102.205 61.7154C102.73 61.3046 102.821 60.6561 102.431 60.1635L97.0134 51.3497H104.534C108.412 51.3497 111.549 48.8485 111.549 45.7567V20.4086C111.549 17.3168 108.412 14.8156 104.534 14.8156H87.0584V30.9428C87.0584 36.8067 81.0775 41.575 73.721 41.575H52.9448L47.5558 44.4466V45.7567C47.5558 48.8485 50.6975 51.3497 54.5707 51.3497H77.2669L100.246 61.8608C100.862 62.1851 101.681 62.1259 102.205 61.7154Z" fill="#FFB300"/>
<path d="M23.7577 36.5363H31.2783L25.7307 45.4113C25.3313 45.9063 25.4322 46.5563 25.9568 46.9648C26.2553 47.1992 26.6449 47.3176 27.0443 47.3176C27.3477 47.3176 27.6459 47.2489 27.9105 47.1088L51.0248 36.5363H73.7207C77.5939 36.5363 80.7359 34.0292 80.7359 30.9431V5.59321C80.7362 2.50512 77.5942 0 73.721 0H23.7577C19.88 0 16.7428 2.50512 16.7428 5.59321V30.9431C16.7428 34.0292 19.88 36.5363 23.7577 36.5363ZM62.7315 14.0847C65.6281 14.0847 67.9809 15.9569 67.9809 18.2681C67.9809 20.5774 65.6281 22.4496 62.7315 22.4496C59.8348 22.4496 57.4866 20.5774 57.4866 18.2681C57.4866 15.9569 59.8348 14.0847 62.7315 14.0847ZM48.7392 14.0847C51.6356 14.0847 53.9841 15.9569 53.9841 18.2681C53.9841 20.5774 51.6356 22.4496 48.7392 22.4496C45.8429 22.4496 43.4898 20.5774 43.4898 18.2681C43.4901 15.9569 45.8432 14.0847 48.7392 14.0847ZM34.7427 14.0847C37.6494 14.0847 39.9924 15.9569 39.9924 18.2681C39.9924 20.5774 37.6494 22.4496 34.7427 22.4496C31.851 22.4496 29.4985 20.5774 29.4985 18.2681C29.4985 15.9569 31.851 14.0847 34.7427 14.0847Z" fill="#FFB300"/>
</svg>
