<svg width="29" height="20" viewBox="0 0 29 20" fill="none" xmlns="http://www.w3.org/2000/svg">
<path d="M28.396 2.99125V4.35136H24.542V7.07016H22.615V4.35136H18.762V2.99125H22.615V0.271033H24.542V2.99125H28.396ZM16.227 1.38199H14.035C15.583 2.00734 16.404 3.29475 16.404 4.71485C16.404 6.01849 15.383 7.06804 13.937 7.86561C12.527 8.64342 12.259 8.9688 12.259 9.63015C12.259 10.1941 13.945 11.0354 14.719 11.4455C17.414 12.8727 17.962 13.7712 17.962 15.5569C17.962 17.7844 14.559 20 9.02698 20C4.17298 20 0.0789795 18.606 0.0789795 16.3785C0.0789795 14.1163 3.47498 11.7603 8.32898 11.7603C8.85798 11.7603 9.34298 11.749 9.84398 11.749C9.17998 11.2931 8.64498 10.9013 8.64498 10.2125C8.64498 9.80308 8.82898 9.41276 9.08698 9.06268C8.82398 9.07609 8.55498 9.08738 8.27698 9.08738C4.29098 9.08738 1.96798 7.11109 1.96798 4.63156C1.96698 2.20567 5.50098 0 9.73798 0C11.923 0 18.09 0 18.09 0L16.227 1.38199ZM11.601 12.7019C10.942 12.5501 10.21 12.4605 9.42898 12.4548C6.07498 12.4287 3.23298 13.9505 3.23298 15.715C3.23298 17.5155 5.65598 19.0126 9.00798 19.0126C13.725 19.0126 15.368 17.6066 15.368 15.806C15.368 15.5872 15.329 15.3776 15.262 15.1722C14.89 14.1537 13.425 13.5954 11.601 12.7019ZM13.048 4.80378C12.661 2.71739 10.736 1.00579 8.48498 0.957086C6.23498 0.910502 4.72198 2.50706 5.11498 4.59345C5.50298 6.67984 7.63998 8.13735 9.89198 8.18605C12.14 8.23264 13.434 6.89018 13.048 4.80378Z" fill="white" fill-opacity="0.5"/>
</svg>
