<svg width="26" height="20" viewBox="0 0 26 20" fill="none" xmlns="http://www.w3.org/2000/svg">
<path d="M3.00202 0.214111C1.30268 0.214111 0.0689697 1.1519 0.0689697 2.44305C0.0689697 3.73377 1.2782 4.67069 2.94327 4.67069C3.80708 4.67069 4.55123 4.44658 5.09573 4.02272C5.61794 3.61584 5.90569 3.0549 5.90515 2.43305C5.86707 1.12666 4.67307 0.214111 3.00202 0.214111ZM4.33745 3.39912C4.00019 3.66153 3.5177 3.80035 2.94327 3.80035C1.89179 3.80035 1.1569 3.24246 1.1569 2.44305C1.1569 1.63059 1.89832 1.08445 3.00202 1.08445C4.0807 1.08445 4.79329 1.62189 4.81777 2.44349C4.81722 2.81861 4.64696 3.1576 4.33745 3.39912Z" fill="white" fill-opacity="0.5"/>
<path d="M0.590637 19.786H5.47978V5.40576H0.590637V19.786ZM1.67856 6.2761H4.39185V18.9152H1.67856V6.2761Z" fill="white" fill-opacity="0.5"/>
<path d="M18.3723 5.40576C16.105 5.40576 14.7168 6.03197 13.9129 6.62076L13.76 5.40576H8.22845V19.7855H13.6458V12.2279C13.6458 11.9024 13.8106 11.2266 13.914 11.0482C14.5683 9.92066 15.4512 9.92066 16.7883 9.92066C18.3282 9.92066 19.6294 11.076 19.6294 12.4433V19.7864H25.069V11.6618C25.069 7.36316 21.5974 5.40576 18.3723 5.40576ZM23.9811 18.9156H20.7173V12.4429C20.7173 10.6034 18.9179 9.04988 16.7883 9.04988C15.4218 9.04988 13.8737 9.04988 12.9267 10.6818C12.7314 11.019 12.5573 11.8271 12.5573 12.2279V18.9156H9.31638V6.2761H12.776L12.9979 8.03593H13.8895L14.0489 7.8301C14.4117 7.36272 15.5589 6.27567 18.3723 6.27567C21.0736 6.27567 23.9811 7.96065 23.9811 11.6605V18.9156Z" fill="white" fill-opacity="0.5"/>
</svg>
