<svg width="152" height="106" viewBox="0 0 152 106" fill="none" xmlns="http://www.w3.org/2000/svg">
<path d="M75.7203 28.8683C85.5228 28.8683 93.4693 22.5948 93.4693 14.856C93.4693 7.11717 85.5228 0.843628 75.7203 0.843628C65.9178 0.843628 57.9713 7.11717 57.9713 14.856C57.9713 22.5948 65.9178 28.8683 75.7203 28.8683Z" fill="#FFB300"/>
<path d="M137.852 53.4068L121.31 50.6826C115.674 49.7505 110.11 51.7898 107.168 55.4153C104.311 54.2567 101.238 53.2576 97.9705 52.4284V44.6626C97.9771 38.7869 91.8844 33.9821 84.4681 33.9821H67.554C60.0984 33.9821 54.032 38.7869 54.032 44.6626V52.4695C50.7966 53.2831 47.7569 54.2822 44.8802 55.4461C41.9384 51.8051 36.3677 49.7505 30.7252 50.6826L14.1698 53.4068C6.90316 54.6067 2.18695 60.2972 3.70681 66.0545L7.86207 81.7251C9.36892 87.467 16.5832 91.1903 23.8565 89.9904L29.0944 89.1252C31.7165 92.1841 35.3434 94.9907 39.9877 97.3905C49.6611 102.396 62.4399 105.156 76.0009 105.156C96.7506 105.156 114.624 98.5698 122.855 89.1097L128.178 89.9904C135.445 91.185 142.659 87.467 144.166 81.7251L148.328 66.0545C149.841 60.2972 145.125 54.6067 137.852 53.4068ZM75.9943 99.8058C63.7441 99.8058 52.2635 97.3699 43.699 92.9154C40.7636 91.4013 38.3305 89.7175 36.3804 87.9151L40.392 87.2507C47.6716 86.056 52.3878 80.3655 50.868 74.6184L47.1433 60.5287C49.3155 59.607 51.5986 58.7984 54.025 58.1084V60.6782C54.025 66.5437 60.1044 71.3485 67.5471 71.3485H84.4611C91.8844 71.3485 97.9638 66.5387 97.9638 60.6782V57.9745C100.436 58.6697 102.758 59.468 104.911 60.3743L101.134 74.6237C99.627 80.3708 104.337 86.0613 111.616 87.2559L115.667 87.9253C108.114 94.9857 93.1693 99.8058 75.9943 99.8058Z" fill="#3E7EF0"/>
<path d="M134.251 47.2889C144.054 47.2889 152 41.0154 152 33.2766C152 25.5378 144.054 19.2642 134.251 19.2642C124.449 19.2642 116.502 25.5378 116.502 33.2766C116.502 41.0154 124.449 47.2889 134.251 47.2889Z" fill="#FFB300"/>
<path d="M21.3905 46.9953C30.9922 45.4091 37.124 37.9783 35.1409 30.4029C33.1187 22.8329 23.7256 17.9715 14.1172 19.5576C4.52845 21.1386 -1.6293 28.5644 0.37984 36.1397C2.38263 43.7201 11.7887 48.5764 21.3905 46.9953Z" fill="#FFB300"/>
</svg>
