<svg width="20" height="18" viewBox="0 0 20 18" fill="none" xmlns="http://www.w3.org/2000/svg">
<path d="M15.6903 12.2962H10.0823C9.53941 12.2962 9.10857 12.1739 8.72782 11.9122C8.33841 11.6433 8.157 11.3373 8.157 10.9495V9.60275H15.6904C16.7119 9.60275 17.5976 9.34994 18.3224 8.85182C19.0413 8.35865 19.4057 7.75846 19.4057 7.06795C19.4057 6.37627 19.0406 5.77564 18.3205 5.28287C17.5929 4.78455 16.7052 4.53185 15.682 4.53185H8.15765V3.16822C8.15765 2.47811 7.79548 1.8783 7.08421 1.38736C6.36503 0.886348 5.48273 0.632324 4.46185 0.632324C3.4248 0.632324 2.53341 0.880644 1.81253 1.37033C1.09575 1.85713 0.732239 2.46256 0.732239 3.16975V10.9513C0.732239 12.7081 1.65222 14.2315 3.46634 15.4789C5.28726 16.732 7.514 17.3675 10.0848 17.3675H15.6909C16.7116 17.3675 17.5971 17.1147 18.322 16.6168C19.0406 16.1244 19.4048 15.5239 19.4048 14.8322C19.4048 14.1415 19.0406 13.5412 18.3237 13.0491C17.5989 12.5495 16.7129 12.2962 15.6903 12.2962ZM17.0614 15.8002C16.6686 16.07 16.2332 16.1956 15.691 16.1956H10.0849C7.97888 16.1956 6.22693 15.6945 4.72874 14.6635C3.22236 13.6275 2.49011 12.4133 2.49011 10.9514V3.16978C2.49011 2.77498 2.67878 2.4549 3.06702 2.19123C3.45579 1.92721 3.89894 1.8042 4.46191 1.8042C4.99927 1.8042 5.429 1.9292 5.81712 2.19959C6.20917 2.47021 6.39984 2.78705 6.39984 3.16822V5.70373H15.682C16.2278 5.70373 16.666 5.82974 17.0611 6.10037C17.4559 6.3706 17.6479 6.68709 17.6479 7.06795C17.6479 7.44818 17.4562 7.76459 17.0612 8.03557C16.6688 8.30529 16.2332 8.43092 15.6903 8.43092H6.39913V10.9495C6.39913 11.6409 6.75714 12.2387 7.46466 12.7272C8.17997 13.2188 9.06064 13.4682 10.0823 13.4682H15.6903C16.2332 13.4682 16.6684 13.594 17.0615 13.8648C17.4609 14.1391 17.647 14.4465 17.647 14.8324C17.6472 15.2134 17.4557 15.5299 17.0614 15.8002Z" fill="white" fill-opacity="0.5"/>
</svg>
